HIERARCHY
ROOT Hips
{
	OFFSET -3.958830 18.904000 13.208200
	CHANNELS 6 Xposition Yposition Zposition Zrotation Yrotation Xrotation 
	JOINT LHipJoint
	{
		OFFSET 0.000000 0.000000 0.000000
		CHANNELS 3 Zrotation Yrotation Xrotation
		JOINT LeftUpLeg
		{
			OFFSET 1.800000 -1.400000 0.085000
			CHANNELS 3 Zrotation Yrotation Xrotation
			JOINT LeftLeg
			{
				OFFSET 2.215000 -6.000000 0.000000
				CHANNELS 3 Zrotation Yrotation Xrotation
				JOINT LeftFoot
				{
					OFFSET 2.500000 -6.900000 0.000000
					CHANNELS 3 Zrotation Yrotation Xrotation
					JOINT LeftToeBase
					{
						OFFSET 0.200000 -0.500000 1.950000
						CHANNELS 3 Zrotation Yrotation Xrotation
						End Site
						{
							OFFSET 0.000000 0.000000 0.000000
						}
					}
				}
			}
		}
	}
	JOINT RHipJoint
	{
		OFFSET 0.000000 0.000000 0.000000
		CHANNELS 3 Zrotation Yrotation Xrotation
		JOINT RightUpLeg
		{
			OFFSET -1.800000 -1.400000 0.085000
			CHANNELS 3 Zrotation Yrotation Xrotation
			JOINT RightLeg
			{
				OFFSET -2.215000 -6.000000 0.000000
				CHANNELS 3 Zrotation Yrotation Xrotation
				JOINT RightFoot
				{
					OFFSET -2.500000 -6.900000 0.000000
					CHANNELS 3 Zrotation Yrotation Xrotation
					JOINT RightToeBase
					{
						OFFSET -0.200000 -0.500000 1.950000
						CHANNELS 3 Zrotation Yrotation Xrotation
						End Site
						{
							OFFSET 0.000000 0.000000 0.000000
						}
					}
				}
			}
		}
	}
	JOINT LowerBack
	{
		OFFSET 0.000000 0.000000 0.000000
		CHANNELS 3 Zrotation Yrotation Xrotation
		JOINT Spine
		{
			OFFSET -0.087000 1.940000 -0.288900
			CHANNELS 3 Zrotation Yrotation Xrotation
			JOINT Spine1
			{
				OFFSET 0.000000 1.950000 0.060000
				CHANNELS 3 Zrotation Yrotation Xrotation
				JOINT Neck
				{
					OFFSET 0.000000 0.000000 0.000000
					CHANNELS 3 Zrotation Yrotation Xrotation
					JOINT Neck1
					{
						OFFSET 0.000000 1.600000 0.340000
						CHANNELS 3 Zrotation Yrotation Xrotation
						JOINT Head
						{
							OFFSET 0.000000 1.667000 -0.240000
							CHANNELS 3 Zrotation Yrotation Xrotation
							End Site
							{
								OFFSET 0.000000 0.000000 0.000000
							}
						}
					}
				}
				JOINT LeftShoulder
				{
					OFFSET 0.000000 0.000000 0.000000
					CHANNELS 3 Zrotation Yrotation Xrotation
					JOINT LeftArm
					{
						OFFSET 2.700000 1.550000 -0.730000
						CHANNELS 3 Zrotation Yrotation Xrotation
						JOINT LeftForeArm
						{
							OFFSET 5.450000 0.000000 0.000000
							CHANNELS 3 Zrotation Yrotation Xrotation
							JOINT LeftHand
							{
								OFFSET 3.450000 0.000000 0.000000
								CHANNELS 3 Zrotation Yrotation Xrotation
								JOINT LeftHandIndex1
								{
									OFFSET 0.750000 0.000000 0.000000
									CHANNELS 3 Zrotation Yrotation Xrotation
									End Site
									{
										OFFSET 0.000000 0.000000 0.000000
									}
								}
							}
						}
					}
				}
				JOINT RightShoulder
				{
					OFFSET 0.000000 0.000000 0.000000
					CHANNELS 3 Zrotation Yrotation Xrotation
					JOINT RightArm
					{
						OFFSET -2.700000 1.550000 -0.730000
						CHANNELS 3 Zrotation Yrotation Xrotation
						JOINT RightForeArm
						{
							OFFSET -5.450000 0.000000 0.000000
							CHANNELS 3 Zrotation Yrotation Xrotation
							JOINT RightHand
							{
								OFFSET -3.450000 0.000000 0.000000
								CHANNELS 3 Zrotation Yrotation Xrotation
								JOINT RightHandIndex1
								{
									OFFSET -0.750000 0.000000 0.000000
									CHANNELS 3 Zrotation Yrotation Xrotation
									End Site
									{
										OFFSET 0.000000 0.000000 0.000000
									}
								}
							}
						}
					}
				}
			}
		}
	}
}
MOTION
Frames: 9
Frame Time: 0.016667
-0.005220 17.181800 -1.535610 18.322518 -25.877775 -32.756937 -15.897533 12.007122 6.326603 -0.469023 2.653883 -80.617250 12.089362 7.116022 12.000930 -0.063661 4.201409 2.846170 0.589920 0.348490 0.547290 17.878846 -9.654270 0.882272 -22.460038 5.969674 9.529489 3.345622 -7.319074 28.939586 -0.888643 -6.036159 2.253346 0.035760 -0.318990 0.188980 -1.822781 -4.468934 -8.967385 -10.613336 17.226688 66.867622 5.272197 15.612921 9.365140 2.843893 -12.690267 -16.324914 -22.645859 7.430938 37.527896 -3.037450 -1.751980 -30.727930 -26.074109 -17.686276 11.390058 -45.234834 24.673595 -24.226608 -94.127397 -29.641880 9.647594 -2.928937 3.321520 0.682000 -0.432800 0.443050 0.150850 21.547228 44.179328 10.008573 19.649243 31.043037 -19.981930 -129.451804 35.363535 -93.086422 2.437960 -1.153144 0.095080 0.075700 -0.300700 -0.090530 
0.015230 17.169630 -1.521880 18.159955 -26.687170 -32.749529 -15.839662 12.005220 6.265106 -0.450386 3.206819 -79.994906 11.400990 7.199925 10.853912 -0.079062 4.183353 2.855339 0.577650 0.335380 0.541350 17.912027 -9.755349 0.932393 -22.182539 5.921652 9.464715 3.152878 -7.154719 28.611738 -0.866736 -5.985057 2.270405 0.040430 -0.307600 0.170510 -1.942005 -4.252351 -8.931427 -9.318026 16.336983 67.647393 4.305391 15.474266 9.640448 3.074727 -13.348128 -16.854038 -23.776726 7.690497 36.829270 -2.890120 -2.092910 -30.229680 -25.521740 -18.182003 11.312407 -44.174663 24.586813 -24.204918 -93.278424 -26.952638 6.404815 -2.941961 3.290613 0.671650 -0.430560 0.424110 0.140520 20.744516 45.263071 10.274701 18.676348 30.846862 -20.052797 -130.696314 33.927890 -93.341873 2.436047 -1.174012 0.080880 0.092770 -0.288130 -0.089550 
0.041890 17.160600 -1.499280 17.946946 -26.863763 -32.211514 -15.859950 12.034351 6.308643 0.333897 3.385313 -80.178319 9.336883 7.411131 16.046809 -0.058930 4.624628 2.684758 0.577910 0.324770 0.549310 17.900485 -9.679886 0.944495 -22.066739 5.954696 9.382426 3.481752 -7.160464 28.154250 -0.860450 -5.930743 2.287565 0.026200 -0.308440 0.178020 -1.889508 -4.395240 -8.958118 -9.407672 15.961618 67.719842 4.640440 14.806808 9.401657 3.345838 -13.600540 -17.610591 -24.574684 8.641618 37.781797 -3.553330 -1.608430 -29.092230 -25.063348 -18.773952 11.220354 -45.623309 24.796299 -25.406348 -87.819393 -23.829707 1.980394 -2.950639 3.242282 0.672560 -0.431690 0.428490 0.139220 20.129171 45.743400 10.817574 18.487813 30.253057 -19.568405 -131.856902 33.493091 -95.328460 2.431691 -1.211378 0.090070 0.087300 -0.286380 -0.088020 
0.072090 17.178160 -1.458310 18.616783 -27.936455 -32.526782 -15.924735 12.003432 6.536825 3.621650 4.295207 -79.908385 5.924278 8.833119 30.253979 0.109404 6.511971 1.976931 0.621040 0.391810 0.556190 17.901803 -9.535658 0.768951 -22.037044 6.352136 8.583097 2.558301 -6.775575 29.806689 -0.884081 -5.885727 2.290181 0.032570 -0.366300 0.197470 -1.745769 -4.588599 -9.031724 -10.356828 16.869591 68.398385 5.564446 14.732777 8.782303 3.458787 -13.679031 -17.949207 -25.395305 8.870949 38.082158 -4.030690 -1.737170 -30.648540 -25.031245 -18.868298 10.965225 -46.171127 24.589004 -25.704922 -85.311698 -22.102346 0.164781 -2.906235 3.275271 0.675710 -0.471560 0.478780 0.157900 20.141545 45.499299 11.256620 18.959143 29.470527 -18.619191 -133.760518 34.648832 -101.681132 2.436874 -1.295328 0.146330 0.047400 -0.322210 -0.069150 
0.102030 17.222090 -1.405100 19.695261 -28.566509 -33.065502 -15.936813 12.105074 6.558410 5.273649 4.739236 -78.030768 4.972489 9.284773 32.580287 0.241114 6.818643 1.857130 0.654150 0.463440 0.549100 17.902308 -9.525560 0.628731 -22.366153 7.296366 6.804548 1.861546 -6.541819 33.567895 -0.927826 -6.009736 2.243648 0.015620 -0.417290 0.207130 -1.664650 -4.797356 -9.051564 -11.587104 18.086861 69.269041 6.736956 14.501242 7.908082 3.484666 -13.871573 -18.884947 -27.156190 9.574992 38.978132 -3.494590 -2.159680 -31.938770 -24.733268 -19.551018 10.891947 -47.403450 23.880648 -26.210894 -83.089404 -21.087396 -0.830781 -2.851109 3.306555 0.659310 -0.522290 0.537390 0.184210 20.439948 45.394121 12.342818 20.202474 27.814229 -18.041889 -136.776953 37.085666 -113.142011 2.479150 -1.393871 0.226780 0.016950 -0.365480 -0.021890 
0.134060 17.263870 -1.367800 20.455297 -27.517848 -32.040968 -15.915040 12.191027 6.588021 4.082249 1.726842 -76.815991 7.086182 8.269523 34.801827 0.293396 6.494367 1.981721 0.655190 0.476490 0.544720 17.899336 -9.578829 0.610021 -22.879769 8.154532 3.128905 2.074105 -6.742856 38.182413 -0.967197 -6.262792 2.138190 -0.012850 -0.434650 0.225890 -1.698643 -4.807900 -9.011512 -12.547646 18.497907 69.406204 8.000985 13.011207 6.990798 3.037912 -13.574726 -19.599734 -27.242791 9.634661 39.530623 -3.471800 -2.325560 -32.921260 -23.742054 -20.749074 11.025573 -47.882945 23.001554 -26.309960 -82.162408 -20.280858 -1.452410 -2.845312 3.321572 0.659080 -0.541970 0.572720 0.193870 20.776454 44.891613 13.306551 22.659115 26.051603 -17.910906 -140.199318 40.753145 -127.561505 2.499705 -1.497908 0.266470 0.002170 -0.378590 0.000940 
0.185510 17.310790 -1.314760 21.429879 -27.939256 -31.101875 -15.904538 12.100652 6.702867 3.470676 -0.712922 -76.522355 10.137272 7.492846 40.089961 0.391437 6.896403 1.863097 0.639130 0.456610 0.546540 17.941086 -9.524904 0.628463 -23.148718 9.285255 -1.829150 1.866699 -6.796996 43.686548 -1.026715 -6.627414 1.994517 -0.035980 -0.436330 0.225700 -1.760253 -4.631938 -9.056621 -13.529322 18.967643 69.032700 9.129167 11.402117 5.632814 2.393642 -13.262632 -19.893799 -27.214586 10.248578 40.147179 -3.872550 -1.791270 -33.418130 -22.851630 -21.442093 11.161320 -49.131580 22.708470 -26.614584 -80.149244 -19.348575 -2.216829 -2.852386 3.287533 0.681350 -0.550320 0.587970 0.189730 21.310580 43.904730 13.731980 25.729768 24.402943 -17.655109 -143.688932 46.092790 -141.861193 2.482825 -1.600030 0.261330 0.011550 -0.374560 -0.002640 
0.228310 17.335140 -1.240830 22.254782 -30.054778 -30.230338 -15.907758 11.824675 6.870068 3.711533 -1.882918 -77.919507 14.158728 6.854883 48.358690 0.600902 8.101231 1.456561 0.647330 0.466430 0.566450 18.031219 -9.356702 0.722579 -21.992241 10.490670 -7.176139 0.574766 -6.167921 49.123483 -1.120143 -6.979570 1.859422 -0.031790 -0.461670 0.227120 -1.856630 -4.223229 -9.185266 -14.377028 19.558744 67.679135 9.900759 10.356982 4.005884 1.380218 -12.774852 -19.220896 -26.731259 10.943034 40.842583 -3.882450 -0.707150 -34.035680 -21.207871 -20.803740 10.785133 -50.153821 21.559292 -26.012950 -77.829066 -16.008921 -4.420689 -2.867153 3.278276 0.708470 -0.562390 0.607650 0.174970 21.437626 41.755142 13.370763 29.858054 22.870632 -17.869679 -148.769000 54.645126 -158.008639 2.397000 -1.730385 0.258260 0.001490 -0.375910 -0.022470 
0.284890 17.341010 -1.147750 22.327993 -31.237970 -29.598666 -15.870135 11.604229 6.896409 3.577861 -3.596765 -76.707414 14.755369 6.750288 54.300156 0.829723 8.868883 1.199255 0.700120 0.532560 0.599110 18.100537 -9.220877 1.015829 -20.942575 11.521392 -11.286991 0.402492 -6.378530 53.943124 -1.304278 -7.515744 1.659471 -0.035310 -0.520810 0.267470 -2.041042 -3.834667 -9.284669 -13.820178 18.639851 67.534699 9.542631 8.999866 2.140157 1.028028 -12.400798 -19.346725 -27.234555 11.806707 42.668512 -3.312190 -0.233610 -34.305980 -19.855964 -21.370968 10.738760 -50.387845 20.479007 -25.599571 -76.546371 -12.656994 -6.761679 -2.834180 3.339709 0.716860 -0.602430 0.672440 0.182410 20.842358 40.827728 13.435073 34.220500 19.936415 -19.943188 -157.132160 61.726293 -174.849358 2.317029 -1.788042 0.329890 -0.054430 -0.411680 -0.005410 
